<?xml version='1.0' encoding='UTF-8'?>
<mxfile><diagram name="Running_Speed_Flowchart"><mxGraphModel><root><mxCell id="0"><mxCell id="1" parent="0" /></mxCell><mxCell id="Start" value="Початок" style="shape=ellipse;" vertex="1" parent="0"><mxGeometry x="20" y="20" width="160" height="60" as_="geometry" /></mxCell><mxCell id="Input_Distance" value="Введення довжини дистанції&#10;(метри)" style="shape=rectangle;" vertex="1" parent="1"><mxGeometry x="20" y="100" width="160" height="60" as_="geometry" /></mxCell><mxCell id="Input_Time" value="Введення часу&#10;(хвилини.секунди)" style="shape=rectangle;" vertex="1" parent="2"><mxGeometry x="20" y="180" width="160" height="60" as_="geometry" /></mxCell><mxCell id="Extract_Seconds" value="Обчислення секунд:&#10;seconds = (minutes - int(minutes)) * 60" style="shape=rectangle;" vertex="1" parent="3"><mxGeometry x="20" y="260" width="160" height="60" as_="geometry" /></mxCell><mxCell id="Calc_Time" value="Обчислення часу:&#10;time = int(minutes) * 60 + seconds" style="shape=rectangle;" vertex="1" parent="4"><mxGeometry x="20" y="340" width="160" height="60" as_="geometry" /></mxCell><mxCell id="Calc_Speed" value="Обчислення швидкості:&#10;speed = (distance / 1000) / (time / 3600)" style="shape=rectangle;" vertex="1" parent="5"><mxGeometry x="20" y="420" width="160" height="60" as_="geometry" /></mxCell><mxCell id="Output_Results" value="Виведення результатів:&#10;Дистанція, Час, Швидкість" style="shape=rectangle;" vertex="1" parent="6"><mxGeometry x="20" y="500" width="160" height="60" as_="geometry" /></mxCell><mxCell id="End" value="Кінець" style="shape=ellipse;" vertex="1" parent="7"><mxGeometry x="20" y="580" width="160" height="60" as_="geometry" /></mxCell><mxCell id="10" edge="1" source="Start" target="Input_Distance" parent="1" /><mxCell id="11" edge="1" source="Input_Distance" target="Input_Time" parent="1" /><mxCell id="12" edge="1" source="Input_Time" target="Extract_Seconds" parent="1" /><mxCell id="13" edge="1" source="Extract_Seconds" target="Calc_Time" parent="1" /><mxCell id="14" edge="1" source="Calc_Time" target="Calc_Speed" parent="1" /><mxCell id="15" edge="1" source="Calc_Speed" target="Output_Results" parent="1" /><mxCell id="16" edge="1" source="Output_Results" target="End" parent="1" /></root></mxGraphModel></diagram></mxfile>